<svg xmlns="http://www.w3.org/2000/svg" style="display: none;"><symbol id="workout" viewBox="0 0 512 512"><title>workout</title><path d="M488,304H472a8.00235,8.00235,0,0,0-5.65723,2.34277l-2.93652,2.9375-8.65137-6.92187a75.08671,75.08671,0,0,0-58.5459-15.37988,92.87918,92.87918,0,0,0-20.83007-24.57618l-34.25782-28.54785a7.92277,7.92277,0,0,0-.68359-.51074l-20.55469-13.70313a82.73808,82.73808,0,0,0-62.51367-12.14916l-36.89941-22.13892-13.98047-10.48633A74.8025,74.8025,0,0,0,161.88867,160h-7.68359a41.58593,41.58593,0,0,0-15.36768,2.94385l-14.3999-9.6001-48-32a8.00113,8.00113,0,0,0-10.51172,1.4502l-48,56a8.00078,8.00078,0,0,0,.417,10.86328l10.168,10.168a25.54478,25.54478,0,0,0,18.042,7.4707q.70167,0,1.40723-.03906a25.52138,25.52138,0,0,0,13.43775-4.73829l11.946,17.91895a8.00073,8.00073,0,0,0,12.31348,1.21973l3.92285-3.92285,10.8418,5.42089a8.00133,8.00133,0,0,0,9.23535-1.498l4.98217-4.98316a41.579,41.579,0,0,0,9.57544,14.85523l2.67774,2.67773a44.30059,44.30059,0,0,0,7.73633,39.24805,56.39622,56.39622,0,0,0-2.05079,33.83984L141.75391,344H128a27.13564,27.13564,0,0,0-19.31445,8L104,356.68555A27.13564,27.13564,0,0,0,96,376a8.00039,8.00039,0,0,0,8,8h57.52051a23.92245,23.92245,0,0,0,23.87988-21.6123l4.042-40.41895a125.40451,125.40451,0,0,0-5.13965-50.293q.87306-3.82909,1.47071-7.67578h28.92871l21.57007,7.19043A310.54405,310.54405,0,0,0,306.168,310.2832l2.86133,1.14453c.05371.02149.10742.043.16211.0625l64,24a8.01358,8.01358,0,0,0,1.23925.3545l68.583,13.71679A20.87643,20.87643,0,0,0,432,368.03418V376a8.00039,8.00039,0,0,0,8,8h48a8.00039,8.00039,0,0,0,8-8V312A8.00039,8.00039,0,0,0,488,304ZM311.00781,232.95312l15.27295,10.18238-18.884,50.35766a294.55244,294.55244,0,0,1-57.96265-32.4956l12.709-38.1272A66.70352,66.70352,0,0,1,311.00781,232.95312ZM53.97266,187.72754a9.50763,9.50763,0,0,1-14.14746.7832L34.89551,183.582l38.56543-44.99316L107.57812,161.333a20.87385,20.87385,0,0,1-23.14062.01074,8.00158,8.00158,0,0,0-10.68457,1.6582L53.97266,187.72656ZM112.06323,200H112a8.00235,8.00235,0,0,0-5.65723,2.34277l-3.92285,3.92285-10.8418-5.42089a8.00182,8.00182,0,0,0-9.23535,1.498l-1.09961,1.10059-8.79663-13.19531,9.6814-12.10157a36.8887,36.8887,0,0,0,39.36133-7.53906l2.80371,1.86939A41.58011,41.58011,0,0,0,112.06323,200Zm61.45923,120.377-4.042,40.41895a7.97506,7.97506,0,0,1-7.96,7.2041H115.31445L120,363.31445A11.23593,11.23593,0,0,1,128,360h24a8,8,0,0,0,7.76074-9.94043l-11.66113-46.64551a40.38928,40.38928,0,0,1,3.05566-27.83691,8.00033,8.00033,0,0,0-1.498-9.23438A28.45846,28.45846,0,0,1,141.33252,248h29.73267a94.28964,94.28964,0,0,1-2.82593,22.05957,8.00353,8.00353,0,0,0,.1709,4.46973A109.56813,109.56813,0,0,1,173.52246,320.377Zm45.00781-71.96679A8.0151,8.0151,0,0,0,216,248H187.07324a109.50242,109.50242,0,0,0-7.89551-41.59766l-3.75-9.374-14.85546,5.94336,3.75,9.37305A94.41155,94.41155,0,0,1,169.80542,232h-25.821a7.98669,7.98669,0,0,0-2.32715-5.65723l-6.12793-6.12793a25.705,25.705,0,0,1,3.91406-39.5625l.50293-.335A25.62943,25.62943,0,0,1,154.20508,176h7.68359a58.70853,58.70853,0,0,1,35.001,11.666l14.31055,10.73437c.21972.16406.44824.31836.68359.46l34.49707,20.69824-11.44043,34.32227Zm159.67285,71.87207-55.9038-20.96436,17.23462-45.95923,25.60278,21.33472a77.06494,77.06494,0,0,1,19.708,24.88476,8.00212,8.00212,0,0,0,9.0957,4.18262,58.94761,58.94761,0,0,1,50.81934,11.0918l9.88647,7.90918L450.64331,334.77ZM480,368H448a4.97274,4.97274,0,0,1,2.76465-4.4375L457.88892,360H472V344h-7.56665l6.55933-19.67871L475.31348,320H480Z"/></symbol><symbol id="growth" viewBox="0 0 480.006 480.006"><title>growth</title><g> <g> <rect x="40.003" y="48.006" width="104" height="16"/> </g> </g><g> <g> <rect x="40.003" y="80.006" width="104" height="16"/> </g> </g><g> <g> <rect x="40.003" y="112.006" width="72" height="16"/> </g> </g><g> <g> <rect x="40.003" y="144.006" width="72" height="16"/> </g> </g><g> <g> <rect x="0.003" y="464.006" width="480" height="16"/> </g> </g><g> <g> <path d="M463.163,68.43l-32-64c-1.973-3.954-6.776-5.56-10.73-3.587c-0.002,0.001-0.004,0.002-0.006,0.003l-64,32 c-3.954,1.975-5.559,6.782-3.584,10.736s6.782,5.559,10.736,3.584l46.352-23.16l-12.648,36.112 C341.69,218.446,198.501,329.522,31.323,344.006l1.36,16C206.16,344.978,354.737,229.701,412.395,65.398l12.912-36.896 l23.536,47.08c1.975,3.954,6.782,5.559,10.736,3.584C463.534,77.191,465.138,72.385,463.163,68.43z"/> </g> </g><g> <g> <path d="M96.003,384.006h-56c-4.418,0-8,3.582-8,8v48c0,4.418,3.582,8,8,8h56c4.418,0,8-3.582,8-8v-48 C104.003,387.588,100.421,384.006,96.003,384.006z M88.003,432.006h-40v-32h40V432.006z"/> </g> </g><g> <g> <path d="M184.003,360.006h-56c-4.418,0-8,3.582-8,8v72c0,4.418,3.582,8,8,8h56c4.418,0,8-3.582,8-8v-72 C192.003,363.588,188.421,360.006,184.003,360.006z M176.003,432.006h-40v-56h40V432.006z"/> </g> </g><g> <g> <path d="M272.003,320.006h-56c-4.418,0-8,3.582-8,8v112c0,4.418,3.582,8,8,8h56c4.418,0,8-3.582,8-8v-112 C280.003,323.588,276.421,320.006,272.003,320.006z M264.003,432.006h-40v-96h40V432.006z"/> </g> </g><g> <g> <path d="M360.003,264.006h-56c-4.418,0-8,3.582-8,8v168c0,4.418,3.582,8,8,8h56c4.418,0,8-3.582,8-8v-168 C368.003,267.588,364.421,264.006,360.003,264.006z M352.003,432.006h-40v-152h40V432.006z"/> </g> </g><g> <g> <path d="M448.003,152.006h-56c-4.418,0-8,3.582-8,8v280c0,4.418,3.582,8,8,8h56c4.418,0,8-3.582,8-8v-280 C456.003,155.588,452.421,152.006,448.003,152.006z M440.003,432.006h-40v-264h40V432.006z"/> </g> </g></symbol><symbol id="goal" viewBox="-26 0 512 512.001"><title>goal</title><path d="m457.085938 68.828125-21.878907-19.265625 21.878907-19.261719c3.402343-3 4.566406-7.675781 2.96875-11.917969-1.605469-4.246093-5.570313-6.988281-10.105469-6.988281h-90.539063v-3.890625c0-4.144531-3.359375-7.503906-7.503906-7.503906s-7.503906 3.359375-7.503906 7.503906v101.203125l-61.628906 33.464844c-.339844-2.710937-1.152344-5.375-2.4375-7.882813l-8.683594-16.953124c-5.960938-11.640626-20.28125-16.253907-31.914063-10.296876l-6.714843 3.4375c-5.640626 2.890626-9.816407 7.796876-11.761719 13.828126-1.945313 6.027343-1.425781 12.453124 1.464843 18.089843l8.683594 16.957031c2.027344 3.957032 5.023438 7.089844 8.546875 9.285157-4.609375 6.207031-6.796875 13.839843-9.046875 21.769531l-1.617187 5.726562c-1.128907 3.988282 1.191406 8.136719 5.179687 9.261719.679688.195313 1.367188.285157 2.042969.285157 3.273437 0 6.28125-2.15625 7.21875-5.464844l1.617187-5.714844c3.289063-11.597656 5.308594-17.808594 11.738282-21.300781l11.527344-6.261719 1.421874-.726562c.472657-.242188.914063-.515626 1.363282-.785157l82.15625-44.613281c-.519532 10.269531-6.046875 19.972656-15.148438 25.5l-53.425781 32.460938c-.0625.035156-.125.070312-.183594.109374l-16.628906 10.101563c-3.539063 2.152344-4.667969 6.769531-2.515625 10.3125 2.027344 3.339844 6.246094 4.527344 9.6875 2.851563l-12.617188 38.140624-9.222656 3.78125-25.078125 10.277344 7.226563-25.546875c1.125-3.988281-1.191406-8.136719-5.179688-9.265625-3.992187-1.132812-8.136718 1.191406-9.265625 5.179688l-11.417969 40.378906c-.148437.519531-.246093 1.089844-.269531 1.632812l-2.988281 54.890626c-.089844 2.09375.355469 6.050781-.613281 8.09375l-33.1875 69.820312h-24.117188c-14.128906 0-25.621093 11.492188-25.621093 25.617188v21.660156c-3.234376-1.480469-6.824219-2.308594-10.609376-2.308594h-61.246093c-14.125 0-25.617188 11.488281-25.617188 25.617188v26.875h-18.015625c-4.144531 0-7.503906 3.359374-7.503906 7.503906 0 4.144531 3.359375 7.503906 7.503906 7.503906h442.4375c4.144532 0 7.503906-3.359375 7.503906-7.503906 0-4.144532-3.359374-7.503906-7.503906-7.503906h-19.515625v-193.417969c0-14.125-11.492187-25.617188-25.617187-25.617188h-45.398438v-130.910156c8.320313-11.277344 11.402344-26.058594 7.539063-40.105469-.605469-2.207031-2.1875-4.019531-4.296875-4.914062-1.035156-.441406-2.144532-.636719-3.242188-.59375v-13.699219h90.535156c4.539063 0 8.503907-2.742187 10.105469-6.984375 1.601563-4.242188.4375-8.921875-2.964843-11.921875zm-221.539063 60.085937c.714844-2.214843 2.246094-4.019531 4.316406-5.078124l6.714844-3.4375c1.265625-.648438 2.617187-.957032 3.953125-.957032 3.164062 0 6.222656 1.730469 7.761719 4.734375l8.6875 16.957031c2.027343 3.960938.714843 8.761719-2.890625 11.1875l-2.445313 1.324219-5.160156 2.644531c-4.269531 2.1875-9.527344.492188-11.714844-3.78125l-8.6875-16.953124c-1.058593-2.070313-1.25-4.429688-.535156-6.640626zm-15.078125 272.925782c-2.550781-1.164063-5.324219-1.925782-8.238281-2.195313l8.238281-10.941406zm35.628906-60.464844c3.609375-4.324219 4.605469-9.375 5.410156-13.445312.203126-.96875 3.90625-21.195313 3.90625-21.195313s3.503907 2.183594 3.871094 2.339844c.253906.113281.433594.363281.460938.65625l4.082031 41.496093h-25.148437zm44.375-41.417969-6.335937 51.234375h-5.230469l-4.222656-42.929687c-.539063-5.5-3.90625-10.300781-8.839844-12.6875l-7.546875-4.785157 5.027344-27.863281s21.179687 25.160157 21.671875 25.800781c4.382812 5.699219 5.882812 7.980469 5.476562 11.230469zm-81.054687 36.316407c1.515625-4.5625 2.21875-9.207032 2.101562-13.929688l2.726563-50.0625 34.707031-14.222656-6.308594 34.945312c-.019531.09375-.039062.191406-.050781.285156l-5.21875 28.894532c-.679688 2.992187-1.273438 7.53125-3.140625 9.996094l-50.707031 67.351562h-4.179688zm-178.890625 133.839843c0-5.847656 4.757812-10.605469 10.609375-10.605469h61.246093c5.851563 0 10.613282 4.757813 10.613282 10.605469v26.878907h-82.46875zm97.472656 0v-44.964843c0-5.851563 4.761719-10.609376 10.613281-10.609376h61.246094c5.851563 0 10.609375 4.757813 10.609375 10.609376v71.84375h-82.464844v-26.878907zm277.417969-166.539062v193.417969h-82.464844v-44.992188c0-4.144531-3.359375-7.503906-7.503906-7.503906-4.148438 0-7.507813 3.359375-7.507813 7.503906v44.992188h-82.464844v-120.152344c0-5.847656 4.757813-10.605469 10.609376-10.605469h61.246093c5.851563 0 10.609375 4.757813 10.609375 10.605469v37.617187c0 4.144531 3.359375 7.503907 7.503906 7.503907 4.148438 0 7.503907-3.359376 7.503907-7.503907v-110.882812c0-5.851563 4.761719-10.609375 10.613281-10.609375h8.265625c.023437 0 .050781.003906.078125.003906.023438 0 .050781-.003906.074219-.003906h52.824219c5.851562 0 10.613281 4.761718 10.613281 10.609375zm-71.855469-25.617188c-14.125 0-25.617188 11.492188-25.617188 25.617188v49.960937c-2.6875-1.226562-5.617187-2.003906-8.699218-2.230468l6.121094-49.5c1.203124-9.648438-3.71875-16.042969-8.476563-22.230469-.503906-.65625-29.671875-35.289063-29.671875-35.289063l17.894531-54.101562 49.289063-29.945313v117.71875zm15.847656-205.234375v-46.316406h79.386719l-17.097656 15.054688c-2.328125 2.050781-3.664063 5.003906-3.664063 8.105468 0 3.101563 1.335938 6.054688 3.664063 8.105469l17.097656 15.054687h-79.386719zm0 0"/></symbol><symbol id="corporate" viewBox="0 0 24 24"><title>corporate</title><circle cx="12" cy="9.5" r="1.5"/><path d="m14.25 15c-.414 0-.75-.336-.75-.75s-.337-.75-.75-.75h-1.5c-.413 0-.75.336-.75.75s-.336.75-.75.75-.75-.336-.75-.75c0-1.241 1.01-2.25 2.25-2.25h1.5c1.24 0 2.25 1.009 2.25 2.25 0 .414-.336.75-.75.75z"/><path d="m12 19c-3.859 0-7-3.14-7-7s3.141-7 7-7 7 3.14 7 7-3.141 7-7 7zm0-12.5c-3.032 0-5.5 2.467-5.5 5.5s2.468 5.5 5.5 5.5 5.5-2.467 5.5-5.5-2.468-5.5-5.5-5.5z"/><path d="m20.09 20.84c-.192 0-.384-.073-.53-.22l-3.49-3.49c-.293-.293-.293-.768 0-1.061s.768-.293 1.061 0l3.49 3.49c.293.293.293.768 0 1.061-.147.147-.339.22-.531.22z"/><path d="m7.4 8.15c-.192 0-.384-.073-.53-.22l-3.49-3.49c-.293-.293-.293-.768 0-1.061s.768-.293 1.061 0l3.49 3.49c.293.293.293.768 0 1.061-.147.147-.338.22-.531.22z"/><path d="m16.6 8.15c-.192 0-.384-.073-.53-.22-.293-.293-.293-.768 0-1.061l3.49-3.49c.293-.293.768-.293 1.061 0s.293.768 0 1.061l-3.49 3.49c-.148.147-.339.22-.531.22z"/><path d="m3.91 20.84c-.192 0-.384-.073-.53-.22-.293-.293-.293-.768 0-1.061l3.49-3.49c.293-.293.768-.293 1.061 0s.293.768 0 1.061l-3.49 3.49c-.147.147-.338.22-.531.22z"/><path d="m2.5 24c-1.379 0-2.5-1.122-2.5-2.5s1.121-2.5 2.5-2.5 2.5 1.122 2.5 2.5-1.121 2.5-2.5 2.5zm0-3.5c-.552 0-1 .449-1 1s.448 1 1 1 1-.449 1-1-.448-1-1-1z"/><path d="m2.5 5c-1.379 0-2.5-1.122-2.5-2.5s1.121-2.5 2.5-2.5 2.5 1.122 2.5 2.5-1.121 2.5-2.5 2.5zm0-3.5c-.552 0-1 .449-1 1s.448 1 1 1 1-.449 1-1-.448-1-1-1z"/><path d="m21.5 5c-1.379 0-2.5-1.122-2.5-2.5s1.121-2.5 2.5-2.5 2.5 1.122 2.5 2.5-1.121 2.5-2.5 2.5zm0-3.5c-.552 0-1 .449-1 1s.448 1 1 1 1-.449 1-1-.448-1-1-1z"/><path d="m21.5 24c-1.379 0-2.5-1.122-2.5-2.5s1.121-2.5 2.5-2.5 2.5 1.122 2.5 2.5-1.121 2.5-2.5 2.5zm0-3.5c-.552 0-1 .449-1 1s.448 1 1 1 1-.449 1-1-.448-1-1-1z"/></symbol><symbol id="speaker" viewBox="0 0 512.001 512.001"><title>speaker</title><g> <g> <path d="M446.977,201.914L277.316,32.253c-17.539-17.54-46.081-17.541-63.622,0c-15.768,15.767-17.126,39.814-5.482,56.985 l-0.236,1.181c-12.232,61.165-42.011,116.809-86.12,160.917l-77.819,77.819c-17.582,17.583-17.585,46.039,0,63.622l42.414,42.414 c17.581,17.582,46.039,17.583,63.622,0l10.604-10.604l74.226,74.226c17.582,17.583,46.038,17.584,63.621,0 c17.541-17.54,17.541-46.081,0-63.621l-31.811-31.811l10.604-10.604c17.582-17.581,17.584-46.037,0-63.621l-7.206-7.207 c35.449-24.819,75.708-42.098,118.701-50.697l1.196-0.239c17.553,11.851,41.544,9.946,56.969-5.479h0.001 C464.516,247.995,464.516,219.455,446.977,201.914z M128.866,413.984c-5.86,5.859-15.348,5.86-21.208-0.001l-42.414-42.414 c-5.861-5.862-5.861-15.346,0-21.207l74.225-74.226l63.622,63.622C195.829,347.02,136.307,406.542,128.866,413.984z M277.316,456.398c5.846,5.846,5.846,15.36,0,21.207c-5.846,5.846-15.361,5.846-21.207,0l-74.226-74.226l21.208-21.207 L277.316,456.398z M224.298,360.965c4.508-4.508,11.256-11.413,21.906-20.509l9.905,9.906c5.861,5.861,5.861,15.345,0,21.207 l-10.604,10.604L224.298,360.965z M224.935,319.189l-64.898-64.898c34.779-40.159,59.685-87.564,73.01-139.064l130.952,130.952 C312.499,259.503,265.095,284.409,224.935,319.189z M425.767,244.326c-5.861,5.86-15.346,5.86-21.207,0L234.901,74.667 c-5.861-5.862-5.861-15.346,0-21.207c5.861-5.861,15.347-5.861,21.208,0l169.658,169.658 C431.613,228.965,431.613,238.478,425.767,244.326z"/> </g> </g><g> <g> <path d="M150.072,329.154c-5.855-5.856-15.351-5.856-21.207,0l-21.207,21.207c-5.856,5.856-5.856,15.351,0,21.207 c5.855,5.856,15.352,5.856,21.207,0l21.207-21.207C155.928,344.505,155.928,335.01,150.072,329.154z"/> </g> </g><g> <g> <path d="M346.19,0c-8.282,0-14.996,6.714-14.996,14.996v29.992c0,8.282,6.714,14.996,14.996,14.996s14.996-6.714,14.996-14.996 V14.996C361.186,6.714,354.472,0,346.19,0z"/> </g> </g><g> <g> <path d="M466.157,119.966h-29.992c-8.282,0-14.996,6.714-14.996,14.996s6.714,14.996,14.996,14.996h29.992 c8.282,0,14.996-6.714,14.996-14.996S474.438,119.966,466.157,119.966z"/> </g> </g><g> <g> <path d="M446.769,34.383c-5.855-5.856-15.351-5.856-21.207,0L395.57,64.375c-5.856,5.856-5.856,15.351,0,21.207 c5.855,5.856,15.351,5.857,21.207,0l29.992-29.992C452.625,49.734,452.625,40.24,446.769,34.383z"/> </g> </g></symbol><symbol id="user" viewBox="0 0 512 512"><title>user</title><g> <g> <path d="M256.76,103.95c-38.69,0-70.16,33.25-70.16,74.13c0,40.87,31.47,74.12,70.16,74.12s70.16-33.25,70.16-74.12 C326.92,137.2,295.45,103.95,256.76,103.95z M256.76,222.2c-22.15,0-40.16-19.79-40.16-44.12c0-24.33,18.01-44.13,40.16-44.13 s40.16,19.8,40.16,44.13C296.92,202.41,278.91,222.2,256.76,222.2z"/> </g> </g><g> <g> <path d="M406.15,113.92h-0.48c-33.56,0.28-60.62,29.29-60.33,64.66c0.29,35.2,27.56,63.65,60.91,63.65h0.48 c16.45-0.14,31.81-7.07,43.24-19.52c11.16-12.17,17.23-28.2,17.09-45.14C466.77,142.37,439.5,113.92,406.15,113.92z M427.86,202.42c-5.74,6.26-13.33,9.74-21.38,9.81h-0.23c-16.91,0-30.76-15.15-30.91-33.9c-0.16-18.83,13.56-34.27,30.58-34.41 h0.23c16.91,0,30.76,15.16,30.91,33.9C437.14,187.14,433.87,195.88,427.86,202.42z"/> </g> </g><g> <g> <path d="M421.7,249.73h-31c-23.85,0-45.57,9.3-61.72,24.46c-15.72-9.3-34.03-14.64-53.58-14.64h-37.29 c-19.93,0-38.59,5.55-54.5,15.18c-16.22-15.48-38.17-25-62.31-25h-31c-49.79,0-90.3,40.51-90.3,90.3v38.23h132.54v29.79h248.43 v-29.79H512v-38.23C512,290.24,471.49,249.73,421.7,249.73z M133.89,348.26H30v-8.23c0-33.25,27.05-60.3,60.3-60.3h31 c14.8,0,28.37,5.36,38.88,14.25C146.61,308.82,137.22,327.54,133.89,348.26z M350.97,378.05H300.4h-88.8h-49.06v-12.93 c0-5.79,0.66-11.44,1.9-16.86c2.43-10.64,7.12-20.44,13.53-28.85c6.37-8.37,14.45-15.37,23.72-20.48 c10.81-5.98,23.23-9.38,36.42-9.38h37.29c12.73,0,24.72,3.16,35.25,8.74c9.26,4.9,17.39,11.68,23.87,19.82 c6.94,8.7,11.99,18.95,14.55,30.15c1.24,5.42,1.9,11.07,1.9,16.86V378.05z M482,348.26H379.62c-3.39-21.05-13.03-40.04-26.94-55 c10.38-8.46,23.62-13.53,38.02-13.53h31c33.25,0,60.3,27.05,60.3,60.3V348.26z"/> </g> </g><g> <g> <path d="M105.75,113.92h-0.48c-33.56,0.28-60.62,29.29-60.33,64.66c0.29,35.2,27.56,63.65,60.91,63.65h0.48 c16.45-0.14,31.81-7.07,43.24-19.52c11.16-12.17,17.23-28.2,17.09-45.14C166.37,142.37,139.1,113.92,105.75,113.92z M127.46,202.42c-5.74,6.26-13.33,9.74-21.38,9.81h-0.23c-16.91,0-30.76-15.15-30.91-33.9c-0.16-18.83,13.56-34.27,30.58-34.41 h0.23c16.91,0,30.76,15.16,30.91,33.9C136.74,187.14,133.47,195.88,127.46,202.42z"/> </g> </g></symbol><symbol id="hashtag-1" viewBox="0 -21 469.33333 469"><title>hashtag-1</title><path d="m282.667969 426.855469c-1.386719 0-2.796875-.171875-4.183594-.554688-8.53125-2.285156-13.566406-11.09375-11.261719-19.605469l106.664063-394.667968c2.304687-8.554688 11.09375-13.675782 19.628906-11.265625 8.53125 2.285156 13.566406 11.09375 11.261719 19.605469l-106.664063 394.667968c-1.921875 7.125-8.386719 11.820313-15.445312 11.820313zm0 0"/><path d="m80 426.855469c-1.386719 0-2.792969-.171875-4.179688-.554688-8.535156-2.285156-13.570312-11.09375-11.265624-19.605469l106.667968-394.667968c2.300782-8.554688 11.113282-13.675782 19.625-11.265625 8.535156 2.285156 13.566406 11.09375 11.265625 19.605469l-106.667969 394.667968c-1.921874 7.125-8.382812 11.820313-15.445312 11.820313zm0 0"/><path d="m410.667969 320.1875h-394.667969c-8.832031 0-16-7.167969-16-16s7.167969-16 16-16h394.667969c8.832031 0 16 7.167969 16 16s-7.167969 16-16 16zm0 0"/><path d="m453.332031 138.855469h-394.664062c-8.832031 0-16-7.167969-16-16s7.167969-16 16-16h394.664062c8.832031 0 16 7.167969 16 16s-7.167969 16-16 16zm0 0"/></symbol><symbol id="hashtag" viewBox="0 0 512 512"><title>hashtag</title><g> <g> <path d="M498.184,195L512,90h-68.028l11.842-90H350.555l-11.842,90H216.972l11.842-90H123.555l-11.842,90H43.684L29.869,195 h68.028L81.844,317H13.816L0,422h68.029l-11.842,90h105.259l11.842-90h121.741l-11.842,90h105.259l11.842-90h68.028l13.816-105 h-68.028l16.053-122H498.184z M447.925,347l-5.921,45h-68.028l-11.842,90h-44.741l11.842-90H146.976l-11.842,90H90.393l11.842-90 H34.206l5.921-45h68.028l23.947-182H64.075l5.921-45h68.029l11.842-90h44.741l-11.842,90h182.259l11.842-90h44.741l-11.842,90 h68.028l-5.921,45h-68.028l-23.947,182H447.925z"/> </g> </g><g> <g> <path d="M176.844,165l-23.947,182h182.259l23.947-182H176.844z M308.844,317H187.103l16.053-122h121.741L308.844,317z"/> </g> </g></symbol></svg>